<svg width="75" height="60" viewBox="0 0 75 60" fill="none" xmlns="http://www.w3.org/2000/svg">
<path d="M39.1174 14.7189L39.031 14.6953C38.5402 14.5615 38.2394 14.079 38.3945 13.6032L39.1174 14.7189ZM39.1174 14.7189L39.1208 14.7154M39.1174 14.7189L39.1208 14.7154M39.1208 14.7154C39.5828 14.7971 40.0563 14.5485 40.1988 14.109C41.466 10.2168 45.4645 7.48571 49.9332 7.48571C50.4408 7.48571 50.8758 7.10647 50.8758 6.61121C50.8758 6.11594 50.4407 5.73672 49.9332 5.73672C44.4735 5.73672 39.8736 9.06009 38.3946 13.6031L39.1208 14.7154Z" fill="#2E3F83" stroke="#F9FFF9" stroke-width="0.3"/>
<path d="M61.0285 42.112H56.2732C55.8355 42.112 55.4806 41.7875 55.4806 41.3875C55.4806 40.9875 55.8355 40.663 56.2732 40.663H61.0285C67.5836 40.663 72.9171 35.7877 72.9171 29.7957C72.9171 23.8038 67.5836 18.9284 61.0285 18.9284H60.9142C60.6843 18.9284 60.4658 18.8374 60.3152 18.6785C60.1646 18.5196 60.0967 18.309 60.1295 18.101C60.2003 17.6497 60.236 17.1964 60.236 16.755C60.236 11.562 55.6135 7.33663 49.9325 7.33663C47.7223 7.33663 45.6146 7.96797 43.837 9.16284C43.4463 9.42521 42.8915 9.30878 42.6657 8.91599C37.6312 0.152858 24.4816 -1.02394 17.6642 6.59922C14.7923 9.81075 13.6639 13.9884 14.5681 18.0601C14.6677 18.5098 14.2913 18.929 13.7914 18.929H13.4738C6.9187 18.929 1.58522 23.8043 1.58522 29.7963C1.58522 35.7882 6.9187 40.6636 13.4738 40.6636H18.2291C18.6668 40.6636 19.0217 40.988 19.0217 41.3881C19.0217 41.7881 18.6668 42.1125 18.2291 42.1125H13.4738C6.0445 42.1125 0 36.5873 0 29.7962C0 23.1957 5.70986 17.791 12.8516 17.4929C12.1807 13.2686 13.4636 9.00756 16.4368 5.68224C23.7358 -2.48011 37.7238 -1.56522 43.6368 7.5364C45.5232 6.45535 47.6818 5.88824 49.9322 5.88824C56.8151 5.88824 62.2692 11.2433 61.7919 17.4996C68.8679 17.8624 74.5019 23.2386 74.5019 29.7957C74.5019 36.5873 68.4574 42.112 61.0282 42.112L61.0285 42.112Z" fill="#2E3F83"/>
<path d="M17.182 40.9795C17.182 51.062 26.151 59.2419 37.1465 59.2419C48.1422 59.2419 57.111 51.0619 57.111 40.9795C57.111 30.8971 48.1422 22.7172 37.1465 22.7172C26.1509 22.7172 17.182 30.8972 17.182 40.9795ZM19.0675 40.9795C19.0675 31.8869 27.165 24.4665 37.1465 24.4665C47.128 24.4665 55.2255 31.8868 55.2255 40.9795C55.2255 50.0722 47.128 57.4926 37.1465 57.4926C27.1651 57.4926 19.0675 50.0723 19.0675 40.9795Z" fill="#2E3F83" stroke="#F9FFF9" stroke-width="0.3"/>
<path d="M36.7758 48.2703C36.7758 48.6584 37.1158 48.9507 37.506 48.9507C37.8962 48.9507 38.2363 48.6588 38.2363 48.2703V34.4796C38.2363 34.0915 37.8963 33.7992 37.506 33.7992C37.1158 33.7992 36.7758 34.0915 36.7758 34.4796V48.2703Z" fill="#2E3F83" stroke="#483EA8" stroke-width="0.3"/>
<path d="M36.996 33.9939C37.2796 33.7342 37.7351 33.7344 38.019 33.9939L42.661 38.2371C42.9528 38.5038 42.9528 38.942 42.661 39.2087L42.5598 39.098L42.6612 39.2085C42.5178 39.3401 42.3317 39.4033 42.1495 39.4033L36.996 33.9939ZM36.996 33.9939C36.9959 33.994 36.9959 33.994 36.9959 33.994L32.354 38.2371C32.0622 38.5038 32.0622 38.942 32.354 39.2087C32.6379 39.4683 33.0934 39.4684 33.3771 39.2087C33.3771 39.2086 33.3771 39.2086 33.3771 39.2086L37.5075 35.4331L41.638 39.2087C41.7811 39.3396 41.967 39.4033 42.1495 39.4033L36.996 33.9939Z" fill="#2E3F83" stroke="#483EA8" stroke-width="0.3"/>
</svg>
